<svg id="Layer_1" data-name="Layer 1" xmlns="http://www.w3.org/2000/svg" viewBox="0 0 815.86 527"><defs><style>.cls-1{fill:#f03c02;}.cls-2{fill:#fff;}</style></defs><title>Logo-light</title><path class="cls-1" d="M558.74,428V175.84h53.47v208H714.49V428Z" transform="translate(-558.74 -175.84)"/><path class="cls-1" d="M876.63,428,866.45,401.8h-1.38Q851.8,418.53,837.73,425t-36.65,6.46q-27.78,0-43.73-15.86t-16-45.2q0-30.69,21.47-45.27T827.64,309l33.46-1v-8.45q0-29.33-30-29.32-23.12,0-54.33,14l-17.42-35.53q33.28-17.41,73.82-17.42,38.82,0,59.51,16.9t20.7,51.4V428ZM861.1,338.67l-20.35.69q-22.93.69-34.15,8.28t-11.21,23.11q0,22.25,25.53,22.25,18.27,0,29.23-10.52t11-27.94Z" transform="translate(-558.74 -175.84)"/><path class="cls-1" d="M1145.54,428h-52.61V315.38q0-20.86-7.42-31.31t-23.63-10.43q-22.08,0-31.91,14.75t-9.83,48.9V428H967.53V235.17h40.19l7.07,24.67h2.93A55.66,55.66,0,0,1,1042,238.71q15.43-7.16,35.1-7.16,33.63,0,51,18.2t17.43,52.52Z" transform="translate(-558.74 -175.84)"/><path class="cls-1" d="M1239.2,329.53l-62.1-94.36h59.68l37.43,61.41L1312,235.17h59.68l-62.79,94.36L1374.6,428h-59.85L1274.21,362,1233.5,428h-59.68Z" transform="translate(-558.74 -175.84)"/><path class="cls-2" d="M810.84,450.09V700H795.12V487a92.74,92.74,0,0,1,.53-9.71L697.27,652c-1.65,3.07-4,4.59-7.07,4.59h-2.82c-3.07,0-5.42-1.52-7.07-4.59l-101-175q.53,5.3.53,10.06V700h-15.9V450.09h12.54a11.51,11.51,0,0,1,3.89.53,6.48,6.48,0,0,1,2.83,2.82L684,627.25a71.93,71.93,0,0,1,4.59,10.59c.71-1.88,1.47-3.73,2.3-5.56a57.7,57.7,0,0,1,2.65-5.21l98-173.63a6.25,6.25,0,0,1,2.91-2.82,12.28,12.28,0,0,1,4-.53Z" transform="translate(-558.74 -175.84)"/><path class="cls-2" d="M858,605.17v3.35q0,19.79,4.59,34.8t13.07,25.17a53.8,53.8,0,0,0,20.49,15.27A67.64,67.64,0,0,0,923,688.89,80.12,80.12,0,0,0,946,686a85.59,85.59,0,0,0,16.33-6.53,87.69,87.69,0,0,0,10.51-6.54q3.88-2.91,5.66-2.91a4.08,4.08,0,0,1,3.53,1.76l4.59,5.66a48.08,48.08,0,0,1-11.22,9.89,80.19,80.19,0,0,1-15.54,7.86,113.4,113.4,0,0,1-18.37,5.21,101.42,101.42,0,0,1-19.69,1.94A83.56,83.56,0,0,1,888.91,696a69.59,69.59,0,0,1-25.44-18.28,83.37,83.37,0,0,1-16.34-29.41q-5.73-17.4-5.74-39.83a108.64,108.64,0,0,1,5.39-34.88,79.93,79.93,0,0,1,15.54-27.56A70.84,70.84,0,0,1,887.23,528q14.74-6.53,33.47-6.53a73,73,0,0,1,27.55,5.12,62.37,62.37,0,0,1,22.08,14.92,70.4,70.4,0,0,1,14.75,24.11q5.38,14.31,5.38,32.86,0,3.88-1.05,5.29a4.13,4.13,0,0,1-3.54,1.42Zm117.28-10.78a75.54,75.54,0,0,0-4-25.34,53.88,53.88,0,0,0-11.21-19,49,49,0,0,0-17.23-11.92,56.64,56.64,0,0,0-22-4.15,66,66,0,0,0-24.37,4.24,53.13,53.13,0,0,0-18.63,12.18,61,61,0,0,0-12.63,19.08,88.79,88.79,0,0,0-6.36,24.9Z" transform="translate(-558.74 -175.84)"/><path class="cls-2" d="M1153.84,443V700h-9.18c-3.06,0-4.83-1.52-5.3-4.59l-1.77-27.73a93.54,93.54,0,0,1-27.2,25.26,66.46,66.46,0,0,1-35,9.36q-32.51,0-50.51-22.43t-18-67.3a124.13,124.13,0,0,1,5-35.94,86.51,86.51,0,0,1,14.75-29,69.73,69.73,0,0,1,23.94-19.34q14.21-7.05,32.76-7.06,17.84,0,30.91,6.53a64.79,64.79,0,0,1,22.78,19.43V443Zm-16.78,119.05q-10.07-15.2-22.34-21.37t-28-6.18q-15.56,0-27.2,5.65a53.48,53.48,0,0,0-19.52,16,72.12,72.12,0,0,0-11.84,24.73,119.36,119.36,0,0,0-4,31.7q0,39.23,14.4,57.67t41.59,18.46a58.13,58.13,0,0,0,31.62-9q14.3-9,25.25-25.25Z" transform="translate(-558.74 -175.84)"/><path class="cls-2" d="M1218.66,463.69a13.47,13.47,0,0,1-1.32,5.92,17.73,17.73,0,0,1-3.44,4.85,16,16,0,0,1-5,3.36,15.16,15.16,0,0,1-12,0,15.83,15.83,0,0,1-5-3.36,16.25,16.25,0,0,1-3.35-4.85,14.15,14.15,0,0,1-1.24-5.92,15.32,15.32,0,0,1,1.24-6.09,15.59,15.59,0,0,1,3.35-5,16,16,0,0,1,5-3.35,15.16,15.16,0,0,1,12,0,16.09,16.09,0,0,1,5,3.35,16.86,16.86,0,0,1,3.44,5A14.58,14.58,0,0,1,1218.66,463.69Zm-7.24,60.58V700h-16.78V524.27Z" transform="translate(-558.74 -175.84)"/><path class="cls-2" d="M1247.27,549.18q13.79-13.78,29-20.85t34.44-7.06q14.13,0,24.73,4.5a45.82,45.82,0,0,1,17.57,12.9A56.26,56.26,0,0,1,1363.49,559a93.23,93.23,0,0,1,3.54,26.58V700h-6.72c-3.53,0-5.71-1.64-6.53-4.94l-2.47-22.61a185.1,185.1,0,0,1-14.4,12.72,86.25,86.25,0,0,1-14.92,9.54,76.74,76.74,0,0,1-16.78,6,86.6,86.6,0,0,1-19.79,2.12,58.14,58.14,0,0,1-17.48-2.65,44.1,44.1,0,0,1-15.1-8.12,39.3,39.3,0,0,1-10.6-14.05q-4-8.57-4-20.57a36.53,36.53,0,0,1,6.35-20.67q6.36-9.54,20-16.6t34.89-11.3q21.27-4.25,51.13-5V585.56q0-24.37-10.51-37.53t-31.17-13.16q-12.72,0-21.64,3.53a77.06,77.06,0,0,0-15.1,7.77,94.13,94.13,0,0,0-10.07,7.78q-3.88,3.52-6.54,3.53a5.31,5.31,0,0,1-3.17-.89,7.66,7.66,0,0,1-2.12-2.29Zm103.33,65.88a330.22,330.22,0,0,0-43.19,4q-18.11,3.09-29.85,8.39t-17.39,12.63a26.61,26.61,0,0,0-5.66,16.69,36.9,36.9,0,0,0,2.92,15.28,29.83,29.83,0,0,0,7.77,10.6,31,31,0,0,0,11.22,6.09,44.89,44.89,0,0,0,13.24,1.94,75.38,75.38,0,0,0,18.81-2.2,70.17,70.17,0,0,0,15.9-6.19,77.43,77.43,0,0,0,13.69-9.45q6.36-5.46,12.54-11.83Z" transform="translate(-558.74 -175.84)"/></svg>